<mxfile host="app.diagrams.net" modified="2023-02-09T08:23:12.250Z" agent="5.0 (X11)" etag="-a9TwQaVCWEHH7UmJBTZ" version="20.8.18" type="github">
  <diagram name="Page-1" id="9UdpMwpC7BlvsGPmVHY0">
    <mxGraphModel dx="957" dy="1911" grid="1" gridSize="10" guides="1" tooltips="1" connect="1" arrows="1" fold="1" page="1" pageScale="1" pageWidth="850" pageHeight="1100" math="0" shadow="0">
      <root>
        <mxCell id="0" />
        <mxCell id="1" parent="0" />
        <mxCell id="az2YXeUZvx4VzaVko_js-1" value="User" style="swimlane;horizontal=0;whiteSpace=wrap;html=1;" vertex="1" parent="1">
          <mxGeometry x="40" y="40" width="910" height="200" as="geometry" />
        </mxCell>
        <mxCell id="az2YXeUZvx4VzaVko_js-2" value="User choose logout" style="shape=ellipse;html=1;fillColor=strokeColor;strokeWidth=2;verticalLabelPosition=bottom;verticalAlignment=top;perimeter=ellipsePerimeter;" vertex="1" parent="az2YXeUZvx4VzaVko_js-1">
          <mxGeometry x="80" y="70" width="40" height="40" as="geometry" />
        </mxCell>
        <mxCell id="az2YXeUZvx4VzaVko_js-3" value="" style="ellipse;html=1;shape=endState;fillColor=#000000;strokeColor=#ff0000;strokeWidth=2;fontFamily=Helvetica;fontSize=12;fontColor=default;" vertex="1" parent="az2YXeUZvx4VzaVko_js-1">
          <mxGeometry x="860" y="70" width="30" height="30" as="geometry" />
        </mxCell>
        <mxCell id="az2YXeUZvx4VzaVko_js-5" value="&lt;div&gt;LoginController&lt;/div&gt;" style="swimlane;horizontal=0;whiteSpace=wrap;html=1;" vertex="1" parent="1">
          <mxGeometry x="40" y="250" width="910" height="190" as="geometry" />
        </mxCell>
        <mxCell id="az2YXeUZvx4VzaVko_js-9" value="Promp Logout Success" style="rounded=1;whiteSpace=wrap;html=1;strokeWidth=2;fontFamily=Helvetica;fontSize=12;" vertex="1" parent="az2YXeUZvx4VzaVko_js-5">
          <mxGeometry x="770" y="40" width="120" height="60" as="geometry" />
        </mxCell>
        <mxCell id="az2YXeUZvx4VzaVko_js-11" value="send User logout request" style="rounded=1;whiteSpace=wrap;html=1;strokeWidth=2;fontFamily=Helvetica;fontSize=12;" vertex="1" parent="az2YXeUZvx4VzaVko_js-5">
          <mxGeometry x="40" y="70" width="120" height="60" as="geometry" />
        </mxCell>
        <mxCell id="az2YXeUZvx4VzaVko_js-19" value="LoginHistoryController" style="swimlane;horizontal=0;whiteSpace=wrap;html=1;" vertex="1" parent="1">
          <mxGeometry x="40" y="470" width="910" height="200" as="geometry" />
        </mxCell>
        <mxCell id="az2YXeUZvx4VzaVko_js-20" value="Send back Complete log out" style="rounded=1;whiteSpace=wrap;html=1;strokeWidth=2;fontFamily=Helvetica;fontSize=12;" vertex="1" parent="az2YXeUZvx4VzaVko_js-19">
          <mxGeometry x="670" y="50" width="120" height="60" as="geometry" />
        </mxCell>
        <mxCell id="az2YXeUZvx4VzaVko_js-54" style="edgeStyle=orthogonalEdgeStyle;rounded=0;orthogonalLoop=1;jettySize=auto;html=1;dashed=1;" edge="1" parent="az2YXeUZvx4VzaVko_js-19" source="az2YXeUZvx4VzaVko_js-24" target="az2YXeUZvx4VzaVko_js-20">
          <mxGeometry relative="1" as="geometry" />
        </mxCell>
        <mxCell id="az2YXeUZvx4VzaVko_js-24" value="Write down time when user logout" style="rounded=1;whiteSpace=wrap;html=1;strokeWidth=2;fontFamily=Helvetica;fontSize=12;" vertex="1" parent="az2YXeUZvx4VzaVko_js-19">
          <mxGeometry x="490" y="50" width="120" height="60" as="geometry" />
        </mxCell>
        <mxCell id="az2YXeUZvx4VzaVko_js-51" style="edgeStyle=orthogonalEdgeStyle;rounded=0;orthogonalLoop=1;jettySize=auto;html=1;dashed=1;" edge="1" parent="az2YXeUZvx4VzaVko_js-19" source="az2YXeUZvx4VzaVko_js-25" target="az2YXeUZvx4VzaVko_js-24">
          <mxGeometry relative="1" as="geometry" />
        </mxCell>
        <mxCell id="az2YXeUZvx4VzaVko_js-25" value="Change User log status to logout" style="rounded=1;whiteSpace=wrap;html=1;strokeWidth=2;fontFamily=Helvetica;fontSize=12;" vertex="1" parent="az2YXeUZvx4VzaVko_js-19">
          <mxGeometry x="280" y="50" width="120" height="60" as="geometry" />
        </mxCell>
        <mxCell id="az2YXeUZvx4VzaVko_js-50" style="edgeStyle=orthogonalEdgeStyle;rounded=0;orthogonalLoop=1;jettySize=auto;html=1;entryX=0;entryY=0.5;entryDx=0;entryDy=0;dashed=1;" edge="1" parent="az2YXeUZvx4VzaVko_js-19" source="az2YXeUZvx4VzaVko_js-48" target="az2YXeUZvx4VzaVko_js-25">
          <mxGeometry relative="1" as="geometry" />
        </mxCell>
        <mxCell id="az2YXeUZvx4VzaVko_js-48" value="Find User Session history" style="rounded=1;whiteSpace=wrap;html=1;strokeWidth=2;fontFamily=Helvetica;fontSize=12;" vertex="1" parent="az2YXeUZvx4VzaVko_js-19">
          <mxGeometry x="70" y="50" width="120" height="60" as="geometry" />
        </mxCell>
        <mxCell id="az2YXeUZvx4VzaVko_js-32" style="edgeStyle=orthogonalEdgeStyle;rounded=0;orthogonalLoop=1;jettySize=auto;html=1;entryX=0.5;entryY=1;entryDx=0;entryDy=0;dashed=1;strokeWidth=1;fontFamily=Helvetica;fontSize=12;fontColor=default;" edge="1" parent="1" source="az2YXeUZvx4VzaVko_js-9" target="az2YXeUZvx4VzaVko_js-3">
          <mxGeometry relative="1" as="geometry" />
        </mxCell>
        <mxCell id="az2YXeUZvx4VzaVko_js-45" style="edgeStyle=orthogonalEdgeStyle;rounded=0;orthogonalLoop=1;jettySize=auto;html=1;entryX=0.5;entryY=0;entryDx=0;entryDy=0;dashed=1;strokeWidth=1;fontFamily=Helvetica;fontSize=12;fontColor=default;" edge="1" parent="1" source="az2YXeUZvx4VzaVko_js-2" target="az2YXeUZvx4VzaVko_js-11">
          <mxGeometry relative="1" as="geometry" />
        </mxCell>
        <mxCell id="az2YXeUZvx4VzaVko_js-47" value="Logout" style="text;html=1;strokeColor=none;fillColor=none;align=center;verticalAlign=middle;whiteSpace=wrap;rounded=0;fontSize=19;" vertex="1" parent="1">
          <mxGeometry x="490" y="-20" width="60" height="30" as="geometry" />
        </mxCell>
        <mxCell id="az2YXeUZvx4VzaVko_js-49" style="edgeStyle=orthogonalEdgeStyle;rounded=0;orthogonalLoop=1;jettySize=auto;html=1;dashed=1;" edge="1" parent="1" source="az2YXeUZvx4VzaVko_js-11" target="az2YXeUZvx4VzaVko_js-48">
          <mxGeometry relative="1" as="geometry" />
        </mxCell>
        <mxCell id="az2YXeUZvx4VzaVko_js-55" style="edgeStyle=orthogonalEdgeStyle;rounded=0;orthogonalLoop=1;jettySize=auto;html=1;entryX=0.575;entryY=1.033;entryDx=0;entryDy=0;entryPerimeter=0;dashed=1;" edge="1" parent="1" source="az2YXeUZvx4VzaVko_js-20" target="az2YXeUZvx4VzaVko_js-9">
          <mxGeometry relative="1" as="geometry">
            <Array as="points">
              <mxPoint x="770" y="435" />
              <mxPoint x="880" y="435" />
            </Array>
          </mxGeometry>
        </mxCell>
      </root>
    </mxGraphModel>
  </diagram>
</mxfile>
